<mxfile host="app.diagrams.net" modified="2024-05-09T08:38:08.617Z" agent="Mozilla/5.0 (Macintosh; Intel Mac OS X 10_15_7) AppleWebKit/537.36 (KHTML, like Gecko) Chrome/124.0.0.0 Safari/537.36" etag="a2NhU2_DxZ0RT-WUrntQ" version="24.3.1" type="github">
  <diagram id="C5RBs43oDa-KdzZeNtuy" name="Page-1">
    <mxGraphModel dx="2074" dy="1121" grid="1" gridSize="10" guides="1" tooltips="1" connect="1" arrows="1" fold="1" page="1" pageScale="1" pageWidth="827" pageHeight="1169" math="0" shadow="0">
      <root>
        <mxCell id="WIyWlLk6GJQsqaUBKTNV-0" />
        <mxCell id="WIyWlLk6GJQsqaUBKTNV-1" parent="WIyWlLk6GJQsqaUBKTNV-0" />
        <mxCell id="TJP5lIswmAY3DPChY6eh-13" value="" style="verticalLabelPosition=bottom;verticalAlign=top;html=1;shape=mxgraph.basic.patternFillRect;fillStyle=hor;step=5;fillStrokeWidth=0.2;fillStrokeColor=#dddddd;" vertex="1" parent="WIyWlLk6GJQsqaUBKTNV-1">
          <mxGeometry x="120" y="160" width="560" height="60" as="geometry" />
        </mxCell>
        <mxCell id="TJP5lIswmAY3DPChY6eh-15" value="" style="verticalLabelPosition=bottom;verticalAlign=top;html=1;shape=mxgraph.basic.patternFillRect;fillStyle=hor;step=5;fillStrokeWidth=0.2;fillStrokeColor=#dddddd;" vertex="1" parent="WIyWlLk6GJQsqaUBKTNV-1">
          <mxGeometry x="120" y="260" width="560" height="60" as="geometry" />
        </mxCell>
        <mxCell id="TJP5lIswmAY3DPChY6eh-16" value="" style="verticalLabelPosition=bottom;verticalAlign=top;html=1;shape=mxgraph.basic.patternFillRect;fillStyle=hor;step=5;fillStrokeWidth=0.2;fillStrokeColor=#dddddd;" vertex="1" parent="WIyWlLk6GJQsqaUBKTNV-1">
          <mxGeometry x="120" y="370" width="560" height="60" as="geometry" />
        </mxCell>
        <mxCell id="TJP5lIswmAY3DPChY6eh-17" value="FileA" style="rounded=1;whiteSpace=wrap;html=1;strokeWidth=2;fillWeight=4;hachureGap=8;hachureAngle=45;fillColor=#1ba1e2;sketch=1;" vertex="1" parent="WIyWlLk6GJQsqaUBKTNV-1">
          <mxGeometry x="260" y="170" width="60" height="30" as="geometry" />
        </mxCell>
        <mxCell id="TJP5lIswmAY3DPChY6eh-18" value="FileB" style="rounded=1;whiteSpace=wrap;html=1;strokeWidth=2;fillWeight=4;hachureGap=8;hachureAngle=45;fillColor=#f8cecc;sketch=1;strokeColor=#b85450;" vertex="1" parent="WIyWlLk6GJQsqaUBKTNV-1">
          <mxGeometry x="354" y="170" width="60" height="30" as="geometry" />
        </mxCell>
        <mxCell id="TJP5lIswmAY3DPChY6eh-36" value="" style="edgeStyle=orthogonalEdgeStyle;rounded=0;orthogonalLoop=1;jettySize=auto;html=1;" edge="1" parent="WIyWlLk6GJQsqaUBKTNV-1" source="TJP5lIswmAY3DPChY6eh-19" target="TJP5lIswmAY3DPChY6eh-17">
          <mxGeometry relative="1" as="geometry" />
        </mxCell>
        <mxCell id="TJP5lIswmAY3DPChY6eh-19" value="FileA" style="rounded=1;whiteSpace=wrap;html=1;strokeWidth=2;fillWeight=4;hachureGap=8;hachureAngle=45;fillColor=#1ba1e2;sketch=1;" vertex="1" parent="WIyWlLk6GJQsqaUBKTNV-1">
          <mxGeometry x="260" y="275" width="60" height="30" as="geometry" />
        </mxCell>
        <object label="FileB" fileB="" id="TJP5lIswmAY3DPChY6eh-24">
          <mxCell style="rounded=1;whiteSpace=wrap;html=1;strokeWidth=2;fillWeight=4;hachureGap=8;hachureAngle=45;fillColor=#f8cecc;sketch=1;strokeColor=#b85450;" vertex="1" parent="WIyWlLk6GJQsqaUBKTNV-1">
            <mxGeometry x="354" y="385" width="60" height="30" as="geometry" />
          </mxCell>
        </object>
        <mxCell id="TJP5lIswmAY3DPChY6eh-37" value="" style="edgeStyle=orthogonalEdgeStyle;rounded=0;orthogonalLoop=1;jettySize=auto;html=1;entryX=0.661;entryY=0.717;entryDx=0;entryDy=0;entryPerimeter=0;" edge="1" parent="WIyWlLk6GJQsqaUBKTNV-1" source="TJP5lIswmAY3DPChY6eh-25" target="TJP5lIswmAY3DPChY6eh-13">
          <mxGeometry relative="1" as="geometry" />
        </mxCell>
        <mxCell id="TJP5lIswmAY3DPChY6eh-25" value="FileC" style="rounded=1;whiteSpace=wrap;html=1;strokeWidth=2;fillWeight=4;hachureGap=8;hachureAngle=45;fillColor=#f8cecc;sketch=1;strokeColor=#b85450;" vertex="1" parent="WIyWlLk6GJQsqaUBKTNV-1">
          <mxGeometry x="461" y="385" width="60" height="30" as="geometry" />
        </mxCell>
        <mxCell id="TJP5lIswmAY3DPChY6eh-38" value="" style="edgeStyle=orthogonalEdgeStyle;rounded=0;orthogonalLoop=1;jettySize=auto;html=1;entryX=0.839;entryY=0.717;entryDx=0;entryDy=0;entryPerimeter=0;" edge="1" parent="WIyWlLk6GJQsqaUBKTNV-1" source="TJP5lIswmAY3DPChY6eh-26" target="TJP5lIswmAY3DPChY6eh-13">
          <mxGeometry relative="1" as="geometry" />
        </mxCell>
        <mxCell id="TJP5lIswmAY3DPChY6eh-26" value="FileD" style="rounded=1;whiteSpace=wrap;html=1;strokeWidth=2;fillWeight=4;hachureGap=8;hachureAngle=45;fillColor=#f8cecc;sketch=1;strokeColor=#b85450;" vertex="1" parent="WIyWlLk6GJQsqaUBKTNV-1">
          <mxGeometry x="560" y="385" width="60" height="30" as="geometry" />
        </mxCell>
        <mxCell id="TJP5lIswmAY3DPChY6eh-29" value="FileC" style="rounded=1;whiteSpace=wrap;html=1;strokeWidth=2;fillWeight=4;hachureGap=8;hachureAngle=45;fillColor=#f8cecc;sketch=1;strokeColor=#b85450;" vertex="1" parent="WIyWlLk6GJQsqaUBKTNV-1">
          <mxGeometry x="460" y="170" width="60" height="30" as="geometry" />
        </mxCell>
        <mxCell id="TJP5lIswmAY3DPChY6eh-30" value="FileD" style="rounded=1;whiteSpace=wrap;html=1;strokeWidth=2;fillWeight=4;hachureGap=8;hachureAngle=45;fillColor=#f8cecc;sketch=1;strokeColor=#b85450;" vertex="1" parent="WIyWlLk6GJQsqaUBKTNV-1">
          <mxGeometry x="560" y="170" width="60" height="30" as="geometry" />
        </mxCell>
        <mxCell id="TJP5lIswmAY3DPChY6eh-32" value="rootfs&lt;div&gt;&lt;span style=&quot;color: rgb(222, 53, 11); font-family: -apple-system, &amp;quot;system-ui&amp;quot;, &amp;quot;Segoe UI&amp;quot;, Roboto, Oxygen, Ubuntu, &amp;quot;Fira Sans&amp;quot;, &amp;quot;Droid Sans&amp;quot;, &amp;quot;Helvetica Neue&amp;quot;, sans-serif; font-size: 14px; font-weight: 400; text-align: start; text-wrap: wrap; background-color: rgb(244, 245, 247);&quot;&gt;/&lt;/span&gt;&lt;br&gt;&lt;/div&gt;" style="text;strokeColor=none;fillColor=none;html=1;fontSize=24;fontStyle=1;verticalAlign=middle;align=center;" vertex="1" parent="WIyWlLk6GJQsqaUBKTNV-1">
          <mxGeometry x="121" y="170" width="100" height="40" as="geometry" />
        </mxCell>
        <mxCell id="TJP5lIswmAY3DPChY6eh-33" value="userdata&lt;div&gt;&lt;span style=&quot;color: rgb(222, 53, 11); font-family: -apple-system, &amp;quot;system-ui&amp;quot;, &amp;quot;Segoe UI&amp;quot;, Roboto, Oxygen, Ubuntu, &amp;quot;Fira Sans&amp;quot;, &amp;quot;Droid Sans&amp;quot;, &amp;quot;Helvetica Neue&amp;quot;, sans-serif; font-size: 14px; font-weight: 400; text-align: start; text-wrap: wrap; background-color: rgb(244, 245, 247);&quot;&gt;/rootfs.rw/upperdir/&lt;/span&gt;&lt;br&gt;&lt;/div&gt;" style="text;strokeColor=none;fillColor=none;html=1;fontSize=24;fontStyle=1;verticalAlign=middle;align=center;" vertex="1" parent="WIyWlLk6GJQsqaUBKTNV-1">
          <mxGeometry x="130" y="270" width="100" height="40" as="geometry" />
        </mxCell>
        <mxCell id="TJP5lIswmAY3DPChY6eh-34" value="system&lt;div&gt;&lt;span style=&quot;color: rgb(222, 53, 11); font-family: -apple-system, &amp;quot;system-ui&amp;quot;, &amp;quot;Segoe UI&amp;quot;, Roboto, Oxygen, Ubuntu, &amp;quot;Fira Sans&amp;quot;, &amp;quot;Droid Sans&amp;quot;, &amp;quot;Helvetica Neue&amp;quot;, sans-serif; font-size: 14px; font-weight: 400; text-align: start; text-wrap: wrap; background-color: rgb(244, 245, 247);&quot;&gt;/rootfs.ro/&lt;/span&gt;&lt;br&gt;&lt;/div&gt;" style="text;strokeColor=none;fillColor=none;html=1;fontSize=24;fontStyle=1;verticalAlign=middle;align=center;" vertex="1" parent="WIyWlLk6GJQsqaUBKTNV-1">
          <mxGeometry x="130" y="380" width="100" height="40" as="geometry" />
        </mxCell>
        <mxCell id="TJP5lIswmAY3DPChY6eh-40" value="" style="verticalLabelPosition=bottom;verticalAlign=top;html=1;shape=mxgraph.basic.patternFillRect;fillStyle=hor;step=5;fillStrokeWidth=0.2;fillStrokeColor=#dddddd;" vertex="1" parent="WIyWlLk6GJQsqaUBKTNV-1">
          <mxGeometry x="884" y="160" width="560" height="60" as="geometry" />
        </mxCell>
        <mxCell id="TJP5lIswmAY3DPChY6eh-41" value="" style="verticalLabelPosition=bottom;verticalAlign=top;html=1;shape=mxgraph.basic.patternFillRect;fillStyle=hor;step=5;fillStrokeWidth=0.2;fillStrokeColor=#dddddd;" vertex="1" parent="WIyWlLk6GJQsqaUBKTNV-1">
          <mxGeometry x="884" y="260" width="560" height="60" as="geometry" />
        </mxCell>
        <mxCell id="TJP5lIswmAY3DPChY6eh-42" value="" style="verticalLabelPosition=bottom;verticalAlign=top;html=1;shape=mxgraph.basic.patternFillRect;fillStyle=hor;step=5;fillStrokeWidth=0.2;fillStrokeColor=#dddddd;" vertex="1" parent="WIyWlLk6GJQsqaUBKTNV-1">
          <mxGeometry x="884" y="370" width="560" height="60" as="geometry" />
        </mxCell>
        <mxCell id="TJP5lIswmAY3DPChY6eh-43" value="FileA" style="rounded=1;whiteSpace=wrap;html=1;strokeWidth=2;fillWeight=4;hachureGap=8;hachureAngle=45;fillColor=#1ba1e2;sketch=1;" vertex="1" parent="WIyWlLk6GJQsqaUBKTNV-1">
          <mxGeometry x="1024" y="170" width="60" height="30" as="geometry" />
        </mxCell>
        <mxCell id="TJP5lIswmAY3DPChY6eh-44" value="FileB" style="rounded=1;whiteSpace=wrap;html=1;strokeWidth=2;fillWeight=4;hachureGap=8;hachureAngle=45;fillColor=#1ba1e2;sketch=1;" vertex="1" parent="WIyWlLk6GJQsqaUBKTNV-1">
          <mxGeometry x="1118" y="170" width="60" height="30" as="geometry" />
        </mxCell>
        <mxCell id="TJP5lIswmAY3DPChY6eh-45" value="" style="edgeStyle=orthogonalEdgeStyle;rounded=0;orthogonalLoop=1;jettySize=auto;html=1;" edge="1" parent="WIyWlLk6GJQsqaUBKTNV-1" source="TJP5lIswmAY3DPChY6eh-46" target="TJP5lIswmAY3DPChY6eh-43">
          <mxGeometry relative="1" as="geometry" />
        </mxCell>
        <mxCell id="TJP5lIswmAY3DPChY6eh-46" value="FileA" style="rounded=1;whiteSpace=wrap;html=1;strokeWidth=2;fillWeight=4;hachureGap=8;hachureAngle=45;fillColor=#1ba1e2;sketch=1;" vertex="1" parent="WIyWlLk6GJQsqaUBKTNV-1">
          <mxGeometry x="1024" y="275" width="60" height="30" as="geometry" />
        </mxCell>
        <mxCell id="TJP5lIswmAY3DPChY6eh-47" value="" style="edgeStyle=orthogonalEdgeStyle;rounded=0;orthogonalLoop=1;jettySize=auto;html=1;" edge="1" parent="WIyWlLk6GJQsqaUBKTNV-1" source="TJP5lIswmAY3DPChY6eh-48" target="TJP5lIswmAY3DPChY6eh-44">
          <mxGeometry relative="1" as="geometry" />
        </mxCell>
        <mxCell id="TJP5lIswmAY3DPChY6eh-48" value="FileB" style="rounded=1;whiteSpace=wrap;html=1;strokeWidth=2;fillWeight=4;hachureGap=8;hachureAngle=45;fillColor=#1ba1e2;sketch=1;" vertex="1" parent="WIyWlLk6GJQsqaUBKTNV-1">
          <mxGeometry x="1118" y="275" width="60" height="30" as="geometry" />
        </mxCell>
        <object label="FileB" fileB="" id="TJP5lIswmAY3DPChY6eh-49">
          <mxCell style="rounded=1;whiteSpace=wrap;html=1;strokeWidth=2;fillWeight=4;hachureGap=8;hachureAngle=45;fillColor=#f8cecc;sketch=1;strokeColor=#b85450;" vertex="1" parent="WIyWlLk6GJQsqaUBKTNV-1">
            <mxGeometry x="1118" y="385" width="60" height="30" as="geometry" />
          </mxCell>
        </object>
        <mxCell id="TJP5lIswmAY3DPChY6eh-50" value="" style="edgeStyle=orthogonalEdgeStyle;rounded=0;orthogonalLoop=1;jettySize=auto;html=1;entryX=0.661;entryY=0.717;entryDx=0;entryDy=0;entryPerimeter=0;" edge="1" parent="WIyWlLk6GJQsqaUBKTNV-1" source="TJP5lIswmAY3DPChY6eh-51" target="TJP5lIswmAY3DPChY6eh-40">
          <mxGeometry relative="1" as="geometry" />
        </mxCell>
        <mxCell id="TJP5lIswmAY3DPChY6eh-51" value="FileC" style="rounded=1;whiteSpace=wrap;html=1;strokeWidth=2;fillWeight=4;hachureGap=8;hachureAngle=45;fillColor=#f8cecc;sketch=1;strokeColor=#b85450;" vertex="1" parent="WIyWlLk6GJQsqaUBKTNV-1">
          <mxGeometry x="1225" y="385" width="60" height="30" as="geometry" />
        </mxCell>
        <mxCell id="TJP5lIswmAY3DPChY6eh-52" value="" style="edgeStyle=orthogonalEdgeStyle;rounded=0;orthogonalLoop=1;jettySize=auto;html=1;entryX=0.839;entryY=0.717;entryDx=0;entryDy=0;entryPerimeter=0;" edge="1" parent="WIyWlLk6GJQsqaUBKTNV-1" source="TJP5lIswmAY3DPChY6eh-53" target="TJP5lIswmAY3DPChY6eh-40">
          <mxGeometry relative="1" as="geometry" />
        </mxCell>
        <mxCell id="TJP5lIswmAY3DPChY6eh-53" value="FileD" style="rounded=1;whiteSpace=wrap;html=1;strokeWidth=2;fillWeight=4;hachureGap=8;hachureAngle=45;fillColor=#f8cecc;sketch=1;strokeColor=#b85450;" vertex="1" parent="WIyWlLk6GJQsqaUBKTNV-1">
          <mxGeometry x="1324" y="385" width="60" height="30" as="geometry" />
        </mxCell>
        <mxCell id="TJP5lIswmAY3DPChY6eh-54" value="FileC" style="rounded=1;whiteSpace=wrap;html=1;strokeWidth=2;fillWeight=4;hachureGap=8;hachureAngle=45;fillColor=#f8cecc;sketch=1;strokeColor=#b85450;" vertex="1" parent="WIyWlLk6GJQsqaUBKTNV-1">
          <mxGeometry x="1224" y="170" width="60" height="30" as="geometry" />
        </mxCell>
        <mxCell id="TJP5lIswmAY3DPChY6eh-55" value="FileD" style="rounded=1;whiteSpace=wrap;html=1;strokeWidth=2;fillWeight=4;hachureGap=8;hachureAngle=45;fillColor=#f8cecc;sketch=1;strokeColor=#b85450;" vertex="1" parent="WIyWlLk6GJQsqaUBKTNV-1">
          <mxGeometry x="1324" y="170" width="60" height="30" as="geometry" />
        </mxCell>
        <mxCell id="TJP5lIswmAY3DPChY6eh-56" value="rootfs&lt;div&gt;&lt;span style=&quot;color: rgb(222, 53, 11); font-family: -apple-system, &amp;quot;system-ui&amp;quot;, &amp;quot;Segoe UI&amp;quot;, Roboto, Oxygen, Ubuntu, &amp;quot;Fira Sans&amp;quot;, &amp;quot;Droid Sans&amp;quot;, &amp;quot;Helvetica Neue&amp;quot;, sans-serif; font-size: 14px; font-weight: 400; text-align: start; text-wrap: wrap; background-color: rgb(244, 245, 247);&quot;&gt;/&lt;/span&gt;&lt;br&gt;&lt;/div&gt;" style="text;strokeColor=none;fillColor=none;html=1;fontSize=24;fontStyle=1;verticalAlign=middle;align=center;" vertex="1" parent="WIyWlLk6GJQsqaUBKTNV-1">
          <mxGeometry x="885" y="170" width="100" height="40" as="geometry" />
        </mxCell>
        <mxCell id="TJP5lIswmAY3DPChY6eh-57" value="userdata&lt;div&gt;&lt;span style=&quot;color: rgb(222, 53, 11); font-family: -apple-system, &amp;quot;system-ui&amp;quot;, &amp;quot;Segoe UI&amp;quot;, Roboto, Oxygen, Ubuntu, &amp;quot;Fira Sans&amp;quot;, &amp;quot;Droid Sans&amp;quot;, &amp;quot;Helvetica Neue&amp;quot;, sans-serif; font-size: 14px; font-weight: 400; text-align: start; text-wrap: wrap; background-color: rgb(244, 245, 247);&quot;&gt;/rootfs.rw/upperdir/&lt;/span&gt;&lt;br&gt;&lt;/div&gt;" style="text;strokeColor=none;fillColor=none;html=1;fontSize=24;fontStyle=1;verticalAlign=middle;align=center;" vertex="1" parent="WIyWlLk6GJQsqaUBKTNV-1">
          <mxGeometry x="894" y="270" width="100" height="40" as="geometry" />
        </mxCell>
        <mxCell id="TJP5lIswmAY3DPChY6eh-58" value="system&lt;div&gt;&lt;span style=&quot;color: rgb(222, 53, 11); font-family: -apple-system, &amp;quot;system-ui&amp;quot;, &amp;quot;Segoe UI&amp;quot;, Roboto, Oxygen, Ubuntu, &amp;quot;Fira Sans&amp;quot;, &amp;quot;Droid Sans&amp;quot;, &amp;quot;Helvetica Neue&amp;quot;, sans-serif; font-size: 14px; font-weight: 400; text-align: start; text-wrap: wrap; background-color: rgb(244, 245, 247);&quot;&gt;/rootfs.ro/&lt;/span&gt;&lt;br&gt;&lt;/div&gt;" style="text;strokeColor=none;fillColor=none;html=1;fontSize=24;fontStyle=1;verticalAlign=middle;align=center;" vertex="1" parent="WIyWlLk6GJQsqaUBKTNV-1">
          <mxGeometry x="894" y="380" width="100" height="40" as="geometry" />
        </mxCell>
        <mxCell id="TJP5lIswmAY3DPChY6eh-59" style="edgeStyle=orthogonalEdgeStyle;rounded=0;orthogonalLoop=1;jettySize=auto;html=1;entryX=0.471;entryY=0.65;entryDx=0;entryDy=0;entryPerimeter=0;" edge="1" parent="WIyWlLk6GJQsqaUBKTNV-1" source="TJP5lIswmAY3DPChY6eh-24" target="TJP5lIswmAY3DPChY6eh-13">
          <mxGeometry relative="1" as="geometry" />
        </mxCell>
        <mxCell id="TJP5lIswmAY3DPChY6eh-61" value="write /FileB" style="html=1;shadow=0;dashed=0;align=center;verticalAlign=middle;shape=mxgraph.arrows2.arrow;dy=0.6;dx=40;notch=0;" vertex="1" parent="WIyWlLk6GJQsqaUBKTNV-1">
          <mxGeometry x="690" y="260" width="180" height="70" as="geometry" />
        </mxCell>
        <mxCell id="TJP5lIswmAY3DPChY6eh-86" value="OTA" style="html=1;shadow=0;dashed=0;align=center;verticalAlign=middle;shape=mxgraph.arrows2.arrow;dy=0.6;dx=40;direction=south;notch=0;" vertex="1" parent="WIyWlLk6GJQsqaUBKTNV-1">
          <mxGeometry x="1137" y="447" width="70" height="100" as="geometry" />
        </mxCell>
        <mxCell id="TJP5lIswmAY3DPChY6eh-106" value="rm&amp;nbsp;&lt;span style=&quot;color: rgb(222, 53, 11); font-family: -apple-system, &amp;quot;system-ui&amp;quot;, &amp;quot;Segoe UI&amp;quot;, Roboto, Oxygen, Ubuntu, &amp;quot;Fira Sans&amp;quot;, &amp;quot;Droid Sans&amp;quot;, &amp;quot;Helvetica Neue&amp;quot;, sans-serif; font-size: 14px; text-align: start; text-wrap: wrap; background-color: rgb(244, 245, 247);&quot;&gt;/rootfs.rw/upperdir/FileB&lt;/span&gt;" style="html=1;shadow=0;dashed=0;align=center;verticalAlign=middle;shape=mxgraph.arrows2.arrow;dy=0.6;dx=40;flipH=1;notch=0;" vertex="1" parent="WIyWlLk6GJQsqaUBKTNV-1">
          <mxGeometry x="688" y="667" width="190" height="70" as="geometry" />
        </mxCell>
        <mxCell id="TJP5lIswmAY3DPChY6eh-107" value="OTA" style="html=1;shadow=0;dashed=0;align=center;verticalAlign=middle;shape=mxgraph.arrows2.arrow;dy=0.6;dx=40;direction=south;notch=0;" vertex="1" parent="WIyWlLk6GJQsqaUBKTNV-1">
          <mxGeometry x="349" y="447" width="70" height="100" as="geometry" />
        </mxCell>
        <mxCell id="TJP5lIswmAY3DPChY6eh-108" value="" style="group" vertex="1" connectable="0" parent="WIyWlLk6GJQsqaUBKTNV-1">
          <mxGeometry x="885" y="565" width="560" height="340" as="geometry" />
        </mxCell>
        <mxCell id="TJP5lIswmAY3DPChY6eh-66" value="" style="verticalLabelPosition=bottom;verticalAlign=top;html=1;shape=mxgraph.basic.patternFillRect;fillStyle=hor;step=5;fillStrokeWidth=0.2;fillStrokeColor=#dddddd;" vertex="1" parent="TJP5lIswmAY3DPChY6eh-108">
          <mxGeometry width="560" height="60" as="geometry" />
        </mxCell>
        <mxCell id="TJP5lIswmAY3DPChY6eh-67" value="" style="verticalLabelPosition=bottom;verticalAlign=top;html=1;shape=mxgraph.basic.patternFillRect;fillStyle=hor;step=5;fillStrokeWidth=0.2;fillStrokeColor=#dddddd;" vertex="1" parent="TJP5lIswmAY3DPChY6eh-108">
          <mxGeometry y="100" width="560" height="60" as="geometry" />
        </mxCell>
        <mxCell id="TJP5lIswmAY3DPChY6eh-68" value="" style="verticalLabelPosition=bottom;verticalAlign=top;html=1;shape=mxgraph.basic.patternFillRect;fillStyle=hor;step=5;fillStrokeWidth=0.2;fillStrokeColor=#dddddd;" vertex="1" parent="TJP5lIswmAY3DPChY6eh-108">
          <mxGeometry y="210" width="560" height="60" as="geometry" />
        </mxCell>
        <mxCell id="TJP5lIswmAY3DPChY6eh-69" value="FileA" style="rounded=1;whiteSpace=wrap;html=1;strokeWidth=2;fillWeight=4;hachureGap=8;hachureAngle=45;fillColor=#1ba1e2;sketch=1;" vertex="1" parent="TJP5lIswmAY3DPChY6eh-108">
          <mxGeometry x="140" y="10" width="60" height="30" as="geometry" />
        </mxCell>
        <mxCell id="TJP5lIswmAY3DPChY6eh-70" value="FileB" style="rounded=1;whiteSpace=wrap;html=1;strokeWidth=2;fillWeight=4;hachureGap=8;hachureAngle=45;fillColor=#1ba1e2;sketch=1;" vertex="1" parent="TJP5lIswmAY3DPChY6eh-108">
          <mxGeometry x="234" y="10" width="60" height="30" as="geometry" />
        </mxCell>
        <mxCell id="TJP5lIswmAY3DPChY6eh-71" value="" style="edgeStyle=orthogonalEdgeStyle;rounded=0;orthogonalLoop=1;jettySize=auto;html=1;" edge="1" parent="TJP5lIswmAY3DPChY6eh-108" source="TJP5lIswmAY3DPChY6eh-72" target="TJP5lIswmAY3DPChY6eh-69">
          <mxGeometry relative="1" as="geometry" />
        </mxCell>
        <mxCell id="TJP5lIswmAY3DPChY6eh-72" value="FileA" style="rounded=1;whiteSpace=wrap;html=1;strokeWidth=2;fillWeight=4;hachureGap=8;hachureAngle=45;fillColor=#1ba1e2;sketch=1;" vertex="1" parent="TJP5lIswmAY3DPChY6eh-108">
          <mxGeometry x="140" y="115" width="60" height="30" as="geometry" />
        </mxCell>
        <mxCell id="TJP5lIswmAY3DPChY6eh-73" value="" style="edgeStyle=orthogonalEdgeStyle;rounded=0;orthogonalLoop=1;jettySize=auto;html=1;" edge="1" parent="TJP5lIswmAY3DPChY6eh-108" source="TJP5lIswmAY3DPChY6eh-74" target="TJP5lIswmAY3DPChY6eh-70">
          <mxGeometry relative="1" as="geometry" />
        </mxCell>
        <mxCell id="TJP5lIswmAY3DPChY6eh-74" value="FileB" style="rounded=1;whiteSpace=wrap;html=1;strokeWidth=2;fillWeight=4;hachureGap=8;hachureAngle=45;fillColor=#1ba1e2;sketch=1;" vertex="1" parent="TJP5lIswmAY3DPChY6eh-108">
          <mxGeometry x="234" y="115" width="60" height="30" as="geometry" />
        </mxCell>
        <object label="FileB" fileB="" id="TJP5lIswmAY3DPChY6eh-75">
          <mxCell style="rounded=1;whiteSpace=wrap;html=1;strokeWidth=2;fillWeight=4;hachureGap=8;hachureAngle=45;fillColor=#fff2cc;sketch=1;strokeColor=#d6b656;" vertex="1" parent="TJP5lIswmAY3DPChY6eh-108">
            <mxGeometry x="234" y="225" width="60" height="30" as="geometry" />
          </mxCell>
        </object>
        <mxCell id="TJP5lIswmAY3DPChY6eh-76" value="" style="edgeStyle=orthogonalEdgeStyle;rounded=0;orthogonalLoop=1;jettySize=auto;html=1;entryX=0.661;entryY=0.717;entryDx=0;entryDy=0;entryPerimeter=0;" edge="1" parent="TJP5lIswmAY3DPChY6eh-108" source="TJP5lIswmAY3DPChY6eh-77" target="TJP5lIswmAY3DPChY6eh-66">
          <mxGeometry relative="1" as="geometry" />
        </mxCell>
        <mxCell id="TJP5lIswmAY3DPChY6eh-77" value="FileC" style="rounded=1;whiteSpace=wrap;html=1;strokeWidth=2;fillWeight=4;hachureGap=8;hachureAngle=45;fillColor=#fff2cc;sketch=1;strokeColor=#d6b656;" vertex="1" parent="TJP5lIswmAY3DPChY6eh-108">
          <mxGeometry x="341" y="225" width="60" height="30" as="geometry" />
        </mxCell>
        <mxCell id="TJP5lIswmAY3DPChY6eh-78" value="" style="edgeStyle=orthogonalEdgeStyle;rounded=0;orthogonalLoop=1;jettySize=auto;html=1;entryX=0.839;entryY=0.717;entryDx=0;entryDy=0;entryPerimeter=0;" edge="1" parent="TJP5lIswmAY3DPChY6eh-108" source="TJP5lIswmAY3DPChY6eh-79" target="TJP5lIswmAY3DPChY6eh-66">
          <mxGeometry relative="1" as="geometry" />
        </mxCell>
        <mxCell id="TJP5lIswmAY3DPChY6eh-79" value="FileD" style="rounded=1;whiteSpace=wrap;html=1;strokeWidth=2;fillWeight=4;hachureGap=8;hachureAngle=45;fillColor=#fff2cc;sketch=1;strokeColor=#d6b656;" vertex="1" parent="TJP5lIswmAY3DPChY6eh-108">
          <mxGeometry x="440" y="225" width="60" height="30" as="geometry" />
        </mxCell>
        <mxCell id="TJP5lIswmAY3DPChY6eh-80" value="FileC" style="rounded=1;whiteSpace=wrap;html=1;strokeWidth=2;fillWeight=4;hachureGap=8;hachureAngle=45;fillColor=#fff2cc;sketch=1;strokeColor=#d6b656;" vertex="1" parent="TJP5lIswmAY3DPChY6eh-108">
          <mxGeometry x="340" y="10" width="60" height="30" as="geometry" />
        </mxCell>
        <mxCell id="TJP5lIswmAY3DPChY6eh-81" value="FileD" style="rounded=1;whiteSpace=wrap;html=1;strokeWidth=2;fillWeight=4;hachureGap=8;hachureAngle=45;fillColor=#fff2cc;sketch=1;strokeColor=#d6b656;" vertex="1" parent="TJP5lIswmAY3DPChY6eh-108">
          <mxGeometry x="440" y="10" width="60" height="30" as="geometry" />
        </mxCell>
        <mxCell id="TJP5lIswmAY3DPChY6eh-82" value="rootfs&lt;div&gt;&lt;span style=&quot;color: rgb(222, 53, 11); font-family: -apple-system, &amp;quot;system-ui&amp;quot;, &amp;quot;Segoe UI&amp;quot;, Roboto, Oxygen, Ubuntu, &amp;quot;Fira Sans&amp;quot;, &amp;quot;Droid Sans&amp;quot;, &amp;quot;Helvetica Neue&amp;quot;, sans-serif; font-size: 14px; font-weight: 400; text-align: start; text-wrap: wrap; background-color: rgb(244, 245, 247);&quot;&gt;/&lt;/span&gt;&lt;br&gt;&lt;/div&gt;" style="text;strokeColor=none;fillColor=none;html=1;fontSize=24;fontStyle=1;verticalAlign=middle;align=center;" vertex="1" parent="TJP5lIswmAY3DPChY6eh-108">
          <mxGeometry x="1" y="10" width="100" height="40" as="geometry" />
        </mxCell>
        <mxCell id="TJP5lIswmAY3DPChY6eh-83" value="userdata&lt;div&gt;&lt;span style=&quot;color: rgb(222, 53, 11); font-family: -apple-system, &amp;quot;system-ui&amp;quot;, &amp;quot;Segoe UI&amp;quot;, Roboto, Oxygen, Ubuntu, &amp;quot;Fira Sans&amp;quot;, &amp;quot;Droid Sans&amp;quot;, &amp;quot;Helvetica Neue&amp;quot;, sans-serif; font-size: 14px; font-weight: 400; text-align: start; text-wrap: wrap; background-color: rgb(244, 245, 247);&quot;&gt;/rootfs.rw/upperdir/&lt;/span&gt;&lt;br&gt;&lt;/div&gt;" style="text;strokeColor=none;fillColor=none;html=1;fontSize=24;fontStyle=1;verticalAlign=middle;align=center;" vertex="1" parent="TJP5lIswmAY3DPChY6eh-108">
          <mxGeometry x="10" y="110" width="100" height="40" as="geometry" />
        </mxCell>
        <mxCell id="TJP5lIswmAY3DPChY6eh-84" value="system&lt;div&gt;&lt;span style=&quot;color: rgb(222, 53, 11); font-family: -apple-system, &amp;quot;system-ui&amp;quot;, &amp;quot;Segoe UI&amp;quot;, Roboto, Oxygen, Ubuntu, &amp;quot;Fira Sans&amp;quot;, &amp;quot;Droid Sans&amp;quot;, &amp;quot;Helvetica Neue&amp;quot;, sans-serif; font-size: 14px; font-weight: 400; text-align: start; text-wrap: wrap; background-color: rgb(244, 245, 247);&quot;&gt;/rootfs.ro/&lt;/span&gt;&lt;br&gt;&lt;/div&gt;" style="text;strokeColor=none;fillColor=none;html=1;fontSize=24;fontStyle=1;verticalAlign=middle;align=center;" vertex="1" parent="TJP5lIswmAY3DPChY6eh-108">
          <mxGeometry x="10" y="220" width="100" height="40" as="geometry" />
        </mxCell>
        <mxCell id="TJP5lIswmAY3DPChY6eh-109" value="" style="group" vertex="1" connectable="0" parent="WIyWlLk6GJQsqaUBKTNV-1">
          <mxGeometry x="121" y="565" width="560" height="270" as="geometry" />
        </mxCell>
        <mxCell id="TJP5lIswmAY3DPChY6eh-87" value="" style="verticalLabelPosition=bottom;verticalAlign=top;html=1;shape=mxgraph.basic.patternFillRect;fillStyle=hor;step=5;fillStrokeWidth=0.2;fillStrokeColor=#dddddd;" vertex="1" parent="TJP5lIswmAY3DPChY6eh-109">
          <mxGeometry width="560" height="60" as="geometry" />
        </mxCell>
        <mxCell id="TJP5lIswmAY3DPChY6eh-88" value="" style="verticalLabelPosition=bottom;verticalAlign=top;html=1;shape=mxgraph.basic.patternFillRect;fillStyle=hor;step=5;fillStrokeWidth=0.2;fillStrokeColor=#dddddd;" vertex="1" parent="TJP5lIswmAY3DPChY6eh-109">
          <mxGeometry y="100" width="560" height="60" as="geometry" />
        </mxCell>
        <mxCell id="TJP5lIswmAY3DPChY6eh-89" value="" style="verticalLabelPosition=bottom;verticalAlign=top;html=1;shape=mxgraph.basic.patternFillRect;fillStyle=hor;step=5;fillStrokeWidth=0.2;fillStrokeColor=#dddddd;" vertex="1" parent="TJP5lIswmAY3DPChY6eh-109">
          <mxGeometry y="210" width="560" height="60" as="geometry" />
        </mxCell>
        <mxCell id="TJP5lIswmAY3DPChY6eh-90" value="FileA" style="rounded=1;whiteSpace=wrap;html=1;strokeWidth=2;fillWeight=4;hachureGap=8;hachureAngle=45;fillColor=#1ba1e2;sketch=1;" vertex="1" parent="TJP5lIswmAY3DPChY6eh-109">
          <mxGeometry x="140" y="10" width="60" height="30" as="geometry" />
        </mxCell>
        <mxCell id="TJP5lIswmAY3DPChY6eh-91" value="FileB" style="rounded=1;whiteSpace=wrap;html=1;strokeWidth=2;fillWeight=4;hachureGap=8;hachureAngle=45;fillColor=#fff2cc;sketch=1;strokeColor=#d6b656;" vertex="1" parent="TJP5lIswmAY3DPChY6eh-109">
          <mxGeometry x="234" y="10" width="60" height="30" as="geometry" />
        </mxCell>
        <mxCell id="TJP5lIswmAY3DPChY6eh-92" value="" style="edgeStyle=orthogonalEdgeStyle;rounded=0;orthogonalLoop=1;jettySize=auto;html=1;" edge="1" parent="TJP5lIswmAY3DPChY6eh-109" source="TJP5lIswmAY3DPChY6eh-93" target="TJP5lIswmAY3DPChY6eh-90">
          <mxGeometry relative="1" as="geometry" />
        </mxCell>
        <mxCell id="TJP5lIswmAY3DPChY6eh-93" value="FileA" style="rounded=1;whiteSpace=wrap;html=1;strokeWidth=2;fillWeight=4;hachureGap=8;hachureAngle=45;fillColor=#1ba1e2;sketch=1;" vertex="1" parent="TJP5lIswmAY3DPChY6eh-109">
          <mxGeometry x="140" y="115" width="60" height="30" as="geometry" />
        </mxCell>
        <object label="FileB" fileB="" id="TJP5lIswmAY3DPChY6eh-94">
          <mxCell style="rounded=1;whiteSpace=wrap;html=1;strokeWidth=2;fillWeight=4;hachureGap=8;hachureAngle=45;fillColor=#fff2cc;sketch=1;strokeColor=#d6b656;" vertex="1" parent="TJP5lIswmAY3DPChY6eh-109">
            <mxGeometry x="234" y="225" width="60" height="30" as="geometry" />
          </mxCell>
        </object>
        <mxCell id="TJP5lIswmAY3DPChY6eh-95" value="" style="edgeStyle=orthogonalEdgeStyle;rounded=0;orthogonalLoop=1;jettySize=auto;html=1;entryX=0.661;entryY=0.717;entryDx=0;entryDy=0;entryPerimeter=0;" edge="1" parent="TJP5lIswmAY3DPChY6eh-109" source="TJP5lIswmAY3DPChY6eh-96" target="TJP5lIswmAY3DPChY6eh-87">
          <mxGeometry relative="1" as="geometry" />
        </mxCell>
        <mxCell id="TJP5lIswmAY3DPChY6eh-96" value="FileC" style="rounded=1;whiteSpace=wrap;html=1;strokeWidth=2;fillWeight=4;hachureGap=8;hachureAngle=45;fillColor=#fff2cc;sketch=1;strokeColor=#d6b656;" vertex="1" parent="TJP5lIswmAY3DPChY6eh-109">
          <mxGeometry x="341" y="225" width="60" height="30" as="geometry" />
        </mxCell>
        <mxCell id="TJP5lIswmAY3DPChY6eh-97" value="" style="edgeStyle=orthogonalEdgeStyle;rounded=0;orthogonalLoop=1;jettySize=auto;html=1;entryX=0.839;entryY=0.717;entryDx=0;entryDy=0;entryPerimeter=0;" edge="1" parent="TJP5lIswmAY3DPChY6eh-109" source="TJP5lIswmAY3DPChY6eh-98" target="TJP5lIswmAY3DPChY6eh-87">
          <mxGeometry relative="1" as="geometry" />
        </mxCell>
        <mxCell id="TJP5lIswmAY3DPChY6eh-98" value="FileD" style="rounded=1;whiteSpace=wrap;html=1;strokeWidth=2;fillWeight=4;hachureGap=8;hachureAngle=45;fillColor=#fff2cc;sketch=1;strokeColor=#d6b656;" vertex="1" parent="TJP5lIswmAY3DPChY6eh-109">
          <mxGeometry x="440" y="225" width="60" height="30" as="geometry" />
        </mxCell>
        <mxCell id="TJP5lIswmAY3DPChY6eh-99" value="FileC" style="rounded=1;whiteSpace=wrap;html=1;strokeWidth=2;fillWeight=4;hachureGap=8;hachureAngle=45;fillColor=#fff2cc;sketch=1;strokeColor=#d6b656;" vertex="1" parent="TJP5lIswmAY3DPChY6eh-109">
          <mxGeometry x="340" y="10" width="60" height="30" as="geometry" />
        </mxCell>
        <mxCell id="TJP5lIswmAY3DPChY6eh-100" value="FileD" style="rounded=1;whiteSpace=wrap;html=1;strokeWidth=2;fillWeight=4;hachureGap=8;hachureAngle=45;fillColor=#fff2cc;sketch=1;strokeColor=#d6b656;" vertex="1" parent="TJP5lIswmAY3DPChY6eh-109">
          <mxGeometry x="440" y="10" width="60" height="30" as="geometry" />
        </mxCell>
        <mxCell id="TJP5lIswmAY3DPChY6eh-101" value="rootfs&lt;div&gt;&lt;span style=&quot;color: rgb(222, 53, 11); font-family: -apple-system, &amp;quot;system-ui&amp;quot;, &amp;quot;Segoe UI&amp;quot;, Roboto, Oxygen, Ubuntu, &amp;quot;Fira Sans&amp;quot;, &amp;quot;Droid Sans&amp;quot;, &amp;quot;Helvetica Neue&amp;quot;, sans-serif; font-size: 14px; font-weight: 400; text-align: start; text-wrap: wrap; background-color: rgb(244, 245, 247);&quot;&gt;/&lt;/span&gt;&lt;br&gt;&lt;/div&gt;" style="text;strokeColor=none;fillColor=none;html=1;fontSize=24;fontStyle=1;verticalAlign=middle;align=center;" vertex="1" parent="TJP5lIswmAY3DPChY6eh-109">
          <mxGeometry x="1" y="10" width="100" height="40" as="geometry" />
        </mxCell>
        <mxCell id="TJP5lIswmAY3DPChY6eh-102" value="userdata&lt;div&gt;&lt;span style=&quot;color: rgb(222, 53, 11); font-family: -apple-system, &amp;quot;system-ui&amp;quot;, &amp;quot;Segoe UI&amp;quot;, Roboto, Oxygen, Ubuntu, &amp;quot;Fira Sans&amp;quot;, &amp;quot;Droid Sans&amp;quot;, &amp;quot;Helvetica Neue&amp;quot;, sans-serif; font-size: 14px; font-weight: 400; text-align: start; text-wrap: wrap; background-color: rgb(244, 245, 247);&quot;&gt;/rootfs.rw/upperdir/&lt;/span&gt;&lt;br&gt;&lt;/div&gt;" style="text;strokeColor=none;fillColor=none;html=1;fontSize=24;fontStyle=1;verticalAlign=middle;align=center;" vertex="1" parent="TJP5lIswmAY3DPChY6eh-109">
          <mxGeometry x="10" y="110" width="100" height="40" as="geometry" />
        </mxCell>
        <mxCell id="TJP5lIswmAY3DPChY6eh-103" value="system&lt;div&gt;&lt;span style=&quot;color: rgb(222, 53, 11); font-family: -apple-system, &amp;quot;system-ui&amp;quot;, &amp;quot;Segoe UI&amp;quot;, Roboto, Oxygen, Ubuntu, &amp;quot;Fira Sans&amp;quot;, &amp;quot;Droid Sans&amp;quot;, &amp;quot;Helvetica Neue&amp;quot;, sans-serif; font-size: 14px; font-weight: 400; text-align: start; text-wrap: wrap; background-color: rgb(244, 245, 247);&quot;&gt;/rootfs.ro/&lt;/span&gt;&lt;br&gt;&lt;/div&gt;" style="text;strokeColor=none;fillColor=none;html=1;fontSize=24;fontStyle=1;verticalAlign=middle;align=center;" vertex="1" parent="TJP5lIswmAY3DPChY6eh-109">
          <mxGeometry x="10" y="220" width="100" height="40" as="geometry" />
        </mxCell>
        <mxCell id="TJP5lIswmAY3DPChY6eh-104" style="edgeStyle=orthogonalEdgeStyle;rounded=0;orthogonalLoop=1;jettySize=auto;html=1;entryX=0.471;entryY=0.65;entryDx=0;entryDy=0;entryPerimeter=0;" edge="1" parent="TJP5lIswmAY3DPChY6eh-109" source="TJP5lIswmAY3DPChY6eh-94" target="TJP5lIswmAY3DPChY6eh-87">
          <mxGeometry relative="1" as="geometry" />
        </mxCell>
      </root>
    </mxGraphModel>
  </diagram>
</mxfile>
